<mxfile host="app.diagrams.net" modified="2022-03-27T11:29:45.073Z" agent="5.0 (Macintosh; Intel Mac OS X 10_15_7) AppleWebKit/605.1.15 (KHTML, like Gecko) Version/15.3 Safari/605.1.15" etag="loMy23zoYKwlS4qpw8N5" version="17.2.1" type="github">
  <diagram id="C5RBs43oDa-KdzZeNtuy" name="Page-1">
    <mxGraphModel dx="1845" dy="723" grid="1" gridSize="10" guides="1" tooltips="1" connect="1" arrows="1" fold="1" page="1" pageScale="1" pageWidth="827" pageHeight="1169" math="0" shadow="0">
      <root>
        <mxCell id="WIyWlLk6GJQsqaUBKTNV-0" />
        <mxCell id="WIyWlLk6GJQsqaUBKTNV-1" parent="WIyWlLk6GJQsqaUBKTNV-0" />
        <mxCell id="iAQoYBFVYf5Ss27A-3ti-35" value="" style="edgeStyle=orthogonalEdgeStyle;rounded=0;orthogonalLoop=1;jettySize=auto;html=1;" edge="1" parent="WIyWlLk6GJQsqaUBKTNV-1" source="iAQoYBFVYf5Ss27A-3ti-15" target="iAQoYBFVYf5Ss27A-3ti-21">
          <mxGeometry relative="1" as="geometry" />
        </mxCell>
        <mxCell id="iAQoYBFVYf5Ss27A-3ti-15" value="SockettServer" style="rounded=1;whiteSpace=wrap;html=1;shadow=0;glass=0;dashed=1;sketch=0;fillColor=#ffe6cc;strokeColor=#d79b00;" vertex="1" parent="WIyWlLk6GJQsqaUBKTNV-1">
          <mxGeometry x="441" y="30" width="120" height="60" as="geometry" />
        </mxCell>
        <mxCell id="iAQoYBFVYf5Ss27A-3ti-32" value="" style="edgeStyle=orthogonalEdgeStyle;rounded=0;orthogonalLoop=1;jettySize=auto;html=1;" edge="1" parent="WIyWlLk6GJQsqaUBKTNV-1" source="iAQoYBFVYf5Ss27A-3ti-21" target="iAQoYBFVYf5Ss27A-3ti-22">
          <mxGeometry relative="1" as="geometry" />
        </mxCell>
        <mxCell id="iAQoYBFVYf5Ss27A-3ti-33" value="N" style="edgeLabel;html=1;align=center;verticalAlign=middle;resizable=0;points=[];" vertex="1" connectable="0" parent="iAQoYBFVYf5Ss27A-3ti-32">
          <mxGeometry x="0.3778" y="1" relative="1" as="geometry">
            <mxPoint as="offset" />
          </mxGeometry>
        </mxCell>
        <mxCell id="iAQoYBFVYf5Ss27A-3ti-34" value="1" style="edgeLabel;html=1;align=center;verticalAlign=middle;resizable=0;points=[];" vertex="1" connectable="0" parent="iAQoYBFVYf5Ss27A-3ti-32">
          <mxGeometry x="-0.7111" y="-1" relative="1" as="geometry">
            <mxPoint as="offset" />
          </mxGeometry>
        </mxCell>
        <mxCell id="iAQoYBFVYf5Ss27A-3ti-21" value="Acceptor&lt;br&gt;processors&lt;br&gt;nioSelector" style="rounded=1;whiteSpace=wrap;html=1;shadow=0;glass=0;dashed=1;sketch=0;fillColor=#ffe6cc;strokeColor=#d79b00;" vertex="1" parent="WIyWlLk6GJQsqaUBKTNV-1">
          <mxGeometry x="441" y="140" width="120" height="60" as="geometry" />
        </mxCell>
        <mxCell id="iAQoYBFVYf5Ss27A-3ti-22" value="Processor" style="rounded=1;whiteSpace=wrap;html=1;shadow=0;glass=0;dashed=1;sketch=0;fillColor=#ffe6cc;strokeColor=#d79b00;" vertex="1" parent="WIyWlLk6GJQsqaUBKTNV-1">
          <mxGeometry x="650" y="140" width="120" height="60" as="geometry" />
        </mxCell>
        <mxCell id="iAQoYBFVYf5Ss27A-3ti-23" value="&lt;pre style=&quot;background-color: rgb(43 , 43 , 43) ; color: rgb(169 , 183 , 198) ; font-family: &amp;#34;jetbrains mono&amp;#34; , monospace ; font-size: 9.8pt&quot;&gt;&lt;span style=&quot;color: rgb(98 , 151 , 85) ; font-style: italic&quot;&gt;/** Un-authenticated, non-encrypted channel */&lt;br&gt;&lt;/span&gt;&lt;span style=&quot;color: rgb(152 , 118 , 170) ; font-style: italic&quot;&gt;PLAINTEXT&lt;/span&gt;(&lt;span style=&quot;color: rgb(104 , 151 , 187)&quot;&gt;0&lt;/span&gt;&lt;span style=&quot;color: rgb(204 , 120 , 50)&quot;&gt;, &lt;/span&gt;&lt;span style=&quot;color: rgb(106 , 135 , 89)&quot;&gt;&quot;PLAINTEXT&quot;&lt;/span&gt;)&lt;span style=&quot;color: rgb(204 , 120 , 50)&quot;&gt;,&lt;br&gt;&lt;/span&gt;&lt;span style=&quot;color: rgb(98 , 151 , 85) ; font-style: italic&quot;&gt;/** SSL channel */&lt;br&gt;&lt;/span&gt;&lt;span style=&quot;color: rgb(152 , 118 , 170) ; font-style: italic&quot;&gt;SSL&lt;/span&gt;(&lt;span style=&quot;color: rgb(104 , 151 , 187)&quot;&gt;1&lt;/span&gt;&lt;span style=&quot;color: rgb(204 , 120 , 50)&quot;&gt;, &lt;/span&gt;&lt;span style=&quot;color: rgb(106 , 135 , 89)&quot;&gt;&quot;SSL&quot;&lt;/span&gt;)&lt;span style=&quot;color: rgb(204 , 120 , 50)&quot;&gt;,&lt;br&gt;&lt;/span&gt;&lt;span style=&quot;color: rgb(98 , 151 , 85) ; font-style: italic&quot;&gt;/** SASL authenticated, non-encrypted channel */&lt;br&gt;&lt;/span&gt;&lt;span style=&quot;color: rgb(152 , 118 , 170) ; font-style: italic&quot;&gt;SASL_PLAINTEXT&lt;/span&gt;(&lt;span style=&quot;color: rgb(104 , 151 , 187)&quot;&gt;2&lt;/span&gt;&lt;span style=&quot;color: rgb(204 , 120 , 50)&quot;&gt;, &lt;/span&gt;&lt;span style=&quot;color: rgb(106 , 135 , 89)&quot;&gt;&quot;SASL_PLAINTEXT&quot;&lt;/span&gt;)&lt;span style=&quot;color: rgb(204 , 120 , 50)&quot;&gt;,&lt;br&gt;&lt;/span&gt;&lt;span style=&quot;color: rgb(98 , 151 , 85) ; font-style: italic&quot;&gt;/** SASL authenticated, SSL channel */&lt;br&gt;&lt;/span&gt;&lt;span style=&quot;color: rgb(152 , 118 , 170) ; font-style: italic&quot;&gt;SASL_SSL&lt;/span&gt;(&lt;span style=&quot;color: rgb(104 , 151 , 187)&quot;&gt;3&lt;/span&gt;&lt;span style=&quot;color: rgb(204 , 120 , 50)&quot;&gt;, &lt;/span&gt;&lt;span style=&quot;color: rgb(106 , 135 , 89)&quot;&gt;&quot;SASL_SSL&quot;&lt;/span&gt;)&lt;span style=&quot;color: rgb(204 , 120 , 50)&quot;&gt;;&lt;/span&gt;&lt;/pre&gt;" style="text;html=1;strokeColor=none;fillColor=none;align=center;verticalAlign=middle;whiteSpace=wrap;rounded=0;shadow=0;glass=0;dashed=1;sketch=0;" vertex="1" parent="WIyWlLk6GJQsqaUBKTNV-1">
          <mxGeometry x="-250" y="90" width="380" height="160" as="geometry" />
        </mxCell>
        <mxCell id="iAQoYBFVYf5Ss27A-3ti-25" value="&lt;pre style=&quot;background-color: rgb(43 , 43 , 43) ; color: rgb(169 , 183 , 198) ; font-family: &amp;#34;jetbrains mono&amp;#34; , monospace ; font-size: 9.8pt&quot;&gt;&lt;span style=&quot;color: rgb(106 , 135 , 89)&quot;&gt;LAINTEXT:// host name&lt;/span&gt;&lt;/pre&gt;" style="text;html=1;strokeColor=none;fillColor=none;align=center;verticalAlign=middle;whiteSpace=wrap;rounded=0;shadow=0;glass=0;dashed=1;sketch=0;" vertex="1" parent="WIyWlLk6GJQsqaUBKTNV-1">
          <mxGeometry x="-190" y="270" width="190" height="30" as="geometry" />
        </mxCell>
        <mxCell id="iAQoYBFVYf5Ss27A-3ti-28" value="" style="edgeStyle=orthogonalEdgeStyle;rounded=0;orthogonalLoop=1;jettySize=auto;html=1;" edge="1" parent="WIyWlLk6GJQsqaUBKTNV-1" source="iAQoYBFVYf5Ss27A-3ti-26" target="iAQoYBFVYf5Ss27A-3ti-27">
          <mxGeometry relative="1" as="geometry" />
        </mxCell>
        <mxCell id="iAQoYBFVYf5Ss27A-3ti-29" value="" style="edgeStyle=orthogonalEdgeStyle;rounded=0;orthogonalLoop=1;jettySize=auto;html=1;" edge="1" parent="WIyWlLk6GJQsqaUBKTNV-1" source="iAQoYBFVYf5Ss27A-3ti-26" target="iAQoYBFVYf5Ss27A-3ti-21">
          <mxGeometry relative="1" as="geometry" />
        </mxCell>
        <mxCell id="iAQoYBFVYf5Ss27A-3ti-30" value="N" style="edgeLabel;html=1;align=center;verticalAlign=middle;resizable=0;points=[];" vertex="1" connectable="0" parent="iAQoYBFVYf5Ss27A-3ti-29">
          <mxGeometry x="-0.56" y="-1" relative="1" as="geometry">
            <mxPoint x="52" y="-1" as="offset" />
          </mxGeometry>
        </mxCell>
        <mxCell id="iAQoYBFVYf5Ss27A-3ti-31" value="N" style="edgeLabel;html=1;align=center;verticalAlign=middle;resizable=0;points=[];" vertex="1" connectable="0" parent="iAQoYBFVYf5Ss27A-3ti-29">
          <mxGeometry x="-0.62" relative="1" as="geometry">
            <mxPoint as="offset" />
          </mxGeometry>
        </mxCell>
        <mxCell id="iAQoYBFVYf5Ss27A-3ti-26" value="List&amp;lt;EndPoint&amp;gt;&lt;br&gt;port&lt;br&gt;listenerName" style="rounded=1;whiteSpace=wrap;html=1;shadow=0;glass=0;dashed=1;sketch=0;" vertex="1" parent="WIyWlLk6GJQsqaUBKTNV-1">
          <mxGeometry x="220" y="140" width="120" height="60" as="geometry" />
        </mxCell>
        <mxCell id="iAQoYBFVYf5Ss27A-3ti-27" value="SecurityProtocol" style="rounded=1;whiteSpace=wrap;html=1;shadow=0;glass=0;dashed=1;sketch=0;" vertex="1" parent="WIyWlLk6GJQsqaUBKTNV-1">
          <mxGeometry x="220" y="250" width="120" height="60" as="geometry" />
        </mxCell>
      </root>
    </mxGraphModel>
  </diagram>
</mxfile>
